<svg id="Component_2_1" data-name="Component 2 – 1" xmlns="http://www.w3.org/2000/svg" xmlns:xlink="http://www.w3.org/1999/xlink" width="1921.148" height="1080.137" viewBox="0 0 1921.148 1080.137">
  <defs>
    <linearGradient id="linear-gradient" x1="-0.719" y1="-0.083" x2="0.776" y2="0.225" gradientUnits="objectBoundingBox">
      <stop offset="0" stop-color="#ef8354"/>
      <stop offset="1" stop-color="#ffb08d"/>
    </linearGradient>
    <linearGradient id="linear-gradient-2" x1="0.5" x2="0.5" y2="1" gradientUnits="objectBoundingBox">
      <stop offset="0" stop-color="#4f5d75"/>
      <stop offset="1" stop-color="#9199a5"/>
    </linearGradient>
    <linearGradient id="linear-gradient-3" x1="0.5" x2="0.5" y2="1" gradientUnits="objectBoundingBox">
      <stop offset="0" stop-color="#ef8354"/>
      <stop offset="1" stop-color="#ffb493"/>
      <stop offset="1" stop-color="#ffb594"/>
    </linearGradient>
  </defs>
  <path id="Path_10" data-name="Path 10" d="M149,158c154.39,0,460.875,0,517.766-.016A153.531,153.531,0,0,1,681,221.5C681,343.831,528.553,443,340.5,443c-70.52,0-137.051-14.4-191.5-38.328C148.984,276,149,297.516,149,158Z" transform="translate(-147.859 -157.984)" fill="url(#linear-gradient)"/>
  <path id="Path_11" data-name="Path 11" d="M546.22,10.375c.016,93.578,0,211.153,0,334.141,0,316.764,0,670.035,0,745.861-36.433.232-84.786.058-141.386.058C145.534,1071.639,0,877.041,0,565,0,295.711,159.99,67.034,370.591,10.375Z" transform="translate(1374.921 -10.359)" fill="url(#linear-gradient-2)"/>
  <path id="Path_9" data-name="Path 9" d="M432,0C670.587,0,864,233.484,864,521.5c0,24.769-4.818,68.5-4.818,68.5H115c0-135.943,1.757-278.756-1.141-421.3C192.645,65.092,306.025,0,432,0Z" transform="translate(-113.859 490.016)" fill="url(#linear-gradient-3)"/>
</svg>
