<svg xmlns="http://www.w3.org/2000/svg" xmlns:xlink="http://www.w3.org/1999/xlink" width="1921.605" height="1082.998" viewBox="0 0 1921.605 1082.998"><defs><linearGradient id="a" x1="-0.719" y1="-0.083" x2="0.776" y2="0.225" gradientUnits="objectBoundingBox"><stop offset="0" stop-color="#ef8354"/><stop offset="1" stop-color="#ffb08d"/></linearGradient><linearGradient id="b" x1="0.5" x2="0.5" y2="1" gradientUnits="objectBoundingBox"><stop offset="0" stop-color="#4f5d75"/><stop offset="1" stop-color="#9199a5"/></linearGradient><linearGradient id="c" x1="0.5" x2="0.5" y2="1" gradientUnits="objectBoundingBox"><stop offset="0" stop-color="#ef8354"/><stop offset="1" stop-color="#ffb493"/><stop offset="1" stop-color="#ffb594"/></linearGradient></defs><path d="M149,158c154.39,0,460.875,0,517.766-.016A153.531,153.531,0,0,1,681,221.5C681,343.831,528.553,443,340.5,443c-70.52,0-137.051-14.4-191.5-38.328C148.984,276,149,297.516,149,158Z" transform="translate(-147.859 -157.385)" fill="url(#a)"/><path d="M546.31,9.759c-1.23,334.062,1.252,975.414.022,1080.616-36.433.232-84.9.058-141.5.058C145.534,1071.639,0,877.041,0,565,0,295.711,162.219,66.418,372.819,9.759,409.117,9.759,503.86,10.375,546.31,9.759Z" transform="translate(1374.921 -9.759)" fill="url(#b)"/><path d="M432,0C670.587,0,864,233.484,864,521.5c0,24.769-4.917,69.313-4.917,69.313s-397.858.489-745.224,1.57c0-135.943,2.9-281.138,0-423.685C192.645,65.092,306.025,0,432,0Z" transform="translate(-113.859 490.615)" fill="url(#c)"/></svg>